<?xml version="1.0" standalone="no"?>
<!DOCTYPE svg PUBLIC "-//W3C//DTD SVG 20010904//EN"
 "http://www.w3.org/TR/2001/REC-SVG-20010904/DTD/svg10.dtd">
<svg version="1.0" xmlns="http://www.w3.org/2000/svg"
 width="30.000000pt" height="30.000000pt" viewBox="0 0 30.000000 30.000000"
 preserveAspectRatio="xMidYMid meet">

<g transform="translate(0.000000,30.000000) scale(0.100000,-0.100000)"
fill="#000000" stroke="none">
<path d="M83 260 c-85 -51 -81 -179 6 -225 116 -60 239 71 171 182 -37 61
-116 81 -177 43z m85 -63 c3 -42 1 -47 -17 -47 -18 0 -21 6 -21 43 0 24 3 47
7 51 16 15 28 -3 31 -47z m-68 -17 c-27 -51 23 -106 75 -82 29 14 41 52 25 82
-17 32 3 48 24 19 38 -55 -6 -139 -74 -139 -68 0 -112 84 -74 139 21 29 41 13
24 -19z"/>
</g>
</svg>
